<svg xmlns="http://www.w3.org/2000/svg" viewBox="0 0 960 240" width="960" height="240" role="img" aria-labelledby="proof-progress-title proof-progress-desc">
  <title id="proof-progress-title">Risk-weighted proof completion estimate: 33 percent</title>
  <desc id="proof-progress-desc">A conservative estimate of proof burden retired, with a current uncertainty range from 20 to 40 percent. It is not a probability of correctness, confidence that P equals NP, or a time estimate.</desc>
  <rect width="960" height="240" rx="28" fill="#f8f1e8"/>
  <path d="M36 52h888" stroke="#6f193c" stroke-width="2" opacity="0.22"/>
  <text x="72" y="84" fill="#371124" font-family="ui-monospace, SFMono-Regular, Menlo, Consolas, monospace" font-size="23" font-weight="700">RISK-WEIGHTED PROOF COMPLETION</text>
  <rect x="72" y="112" width="816" height="52" rx="8" fill="#6f193c"/>
  <rect x="235.2" y="106" width="163.2" height="64" rx="8" fill="#e3a72f" opacity="0.62"/>
  <rect x="72" y="112" width="269.28" height="52" rx="8" fill="#168b87"/>
  <path d="M72 112v52" stroke="#f8f1e8" stroke-width="2" opacity="0.82"/>
  <path d="M112.8 112v52" stroke="#f8f1e8" stroke-width="2" opacity="0.82"/>
  <path d="M153.6 112v52" stroke="#f8f1e8" stroke-width="2" opacity="0.82"/>
  <path d="M194.4 112v52" stroke="#f8f1e8" stroke-width="2" opacity="0.82"/>
  <path d="M235.2 112v52" stroke="#f8f1e8" stroke-width="2" opacity="0.82"/>
  <path d="M276 112v52" stroke="#f8f1e8" stroke-width="2" opacity="0.82"/>
  <path d="M316.8 112v52" stroke="#f8f1e8" stroke-width="2" opacity="0.82"/>
  <path d="M357.6 112v52" stroke="#f8f1e8" stroke-width="2" opacity="0.82"/>
  <path d="M398.4 112v52" stroke="#f8f1e8" stroke-width="2" opacity="0.82"/>
  <path d="M439.2 112v52" stroke="#f8f1e8" stroke-width="2" opacity="0.82"/>
  <path d="M480 112v52" stroke="#f8f1e8" stroke-width="2" opacity="0.82"/>
  <path d="M520.8 112v52" stroke="#f8f1e8" stroke-width="2" opacity="0.82"/>
  <path d="M561.6 112v52" stroke="#f8f1e8" stroke-width="2" opacity="0.82"/>
  <path d="M602.4 112v52" stroke="#f8f1e8" stroke-width="2" opacity="0.82"/>
  <path d="M643.2 112v52" stroke="#f8f1e8" stroke-width="2" opacity="0.82"/>
  <path d="M684 112v52" stroke="#f8f1e8" stroke-width="2" opacity="0.82"/>
  <path d="M724.8 112v52" stroke="#f8f1e8" stroke-width="2" opacity="0.82"/>
  <path d="M765.6 112v52" stroke="#f8f1e8" stroke-width="2" opacity="0.82"/>
  <path d="M806.4 112v52" stroke="#f8f1e8" stroke-width="2" opacity="0.82"/>
  <path d="M847.2 112v52" stroke="#f8f1e8" stroke-width="2" opacity="0.82"/>
  <path d="M888 112v52" stroke="#f8f1e8" stroke-width="2" opacity="0.82"/>
  <path d="M341.28 101l11 11-11 11-11-11z" fill="#e3a72f" stroke="#371124" stroke-width="3"/>
  <text x="72" y="207" fill="#6f193c" font-family="ui-monospace, SFMono-Regular, Menlo, Consolas, monospace" font-size="30" font-weight="800">33% ESTIMATE</text>
  <text x="888" y="205" text-anchor="end" fill="#5d4b54" font-family="system-ui, sans-serif" font-size="16">uncertainty 20% to 40% · may decrease</text>
</svg>
